<svg xmlns="http://www.w3.org/2000/svg" width="93.898" height="31.555" viewBox="0 0 93.898 31.555"><defs><style>.a{fill:#ff6d00;}</style></defs><g transform="translate(-199.717 -58.228)"><path d="M-7.745-6.294h22.9c6.415,0,11.453-2.519,11.453-9.314,0-3.944-1.806-6.178-4.847-7.461a7.775,7.775,0,0,0,3.564-6.938c0-6.368-5.322-7.841-11.263-7.841H-7.745ZM-3.23-20.645H14.917c4.8,0,7.081,1.331,7.081,5.085,0,3.612-2.281,5.275-6.8,5.275H-3.23Zm0-13.211H14.727c3.612,0,6.035,1.188,6.035,4.467,0,3.754-2.329,4.99-6.035,4.99H-3.23Zm31.411,4.277V-6.294H32.22V-29.579Zm0-8.269V-33H32.22v-4.847Zm10.774,0H34.915V-6.294h4.039Zm6.264,0H41.179V-6.294h4.039ZM47.3-29.579V-6.294h4.039V-29.579Zm0-8.269V-33h4.039v-4.847Z" transform="translate(242.271 96.076)"/><g transform="translate(199.717 58.228)"><g transform="translate(0 0)"><g transform="translate(0)"><path class="a" d="M.5.5V22.35H19.6a3.845,3.845,0,0,0,3.86-3.495,3.763,3.763,0,0,0-1-2.867,3.806,3.806,0,0,0-2.778-1.215H16.747v4.875L8.311,12.624l8.436-7.031V10.47h2.934A8.094,8.094,0,0,1,19.7,26.657H.5v5.4H32.054V.5Z" transform="translate(-0.5 -0.5)"/></g></g></g></g></svg>