<svg xmlns="http://www.w3.org/2000/svg" xmlns:xlink="http://www.w3.org/1999/xlink" width="344.719" height="277.721" viewBox="0 0 344.719 277.721"><defs><style>.a{fill:url(#a);}.b,.f{fill:none;}.b{stroke:#fff;}.b,.d,.f{stroke-linecap:round;stroke-linejoin:round;stroke-miterlimit:10;}.c{fill:url(#b);}.d,.e{fill:#fff;}.d,.f{stroke:#000;}.g{fill:url(#c);}.h{fill:url(#d);}</style><linearGradient id="a" x1="0.5" y1="-0.349" x2="0.5" y2="2.171" gradientUnits="objectBoundingBox"><stop offset="0" stop-color="#ff872e"/><stop offset="0.842" stop-color="#fff"/><stop offset="1" stop-color="#fff"/></linearGradient><linearGradient id="b" x1="0.5" y1="0.027" x2="0.5" y2="1.647" gradientUnits="objectBoundingBox"><stop offset="0" stop-color="#ff6d00"/><stop offset="0.842" stop-color="#fff"/><stop offset="1" stop-color="#fff"/></linearGradient><linearGradient id="c" x1="0.499" y1="-0.147" x2="0.499" y2="1.277" gradientUnits="objectBoundingBox"><stop offset="0" stop-color="#ff6d00"/><stop offset="1" stop-color="#fff"/></linearGradient><linearGradient id="d" x1="0.508" y1="-0.766" x2="0.508" y2="1.66" xlink:href="#b"/></defs><g transform="translate(-601.781 -181.43)"><g transform="translate(574.018 137.83)"><g transform="translate(279.657 147.803)"><rect class="a" width="73.958" height="137.386"/><path class="b" d="M252,193.691l7.1-7.1,13.347,8.2L293.265,162.1" transform="translate(-229.47 -121.203)"/></g><g transform="translate(136.761 78.253)"><rect class="c" width="75.673" height="213.671" transform="translate(0 15.918)"/><path d="M160.285,245.262,162.122,97.1H138l1.837,148.162Z" transform="translate(-112.164 -66.243)"/><line class="d" x1="19.714" transform="translate(28.04 200.936)"/><path d="M159.681,231.9l.122-8.2H139.6l.122,8.2Z" transform="translate(-111.804 -37.825)"/><path d="M129.2,109.369h45.673L152.587,71.9Z" transform="translate(-114.139 -71.9)"/></g><g transform="translate(136.761 43.6)"><rect width="67.469" height="5.51" transform="translate(0 12.979)"/><rect width="75.673" height="5.51" transform="translate(0)"/></g><g transform="translate(184.27 81.672)"><g transform="translate(50.304 66.988)"><path class="d" d="M207.5,224.467c3.673,11.51,10.041,30.367,10.041,30.367s-7.1,2.939-5.51,9.673h26.694c.245-.49-10.775-37.469-15.184-46.408C219.622,219.937,207.5,224.467,207.5,224.467Z" transform="translate(-194.376 -109.489)"/><path d="M248.1,214.4c10.9,5.265,34.9,15.061,34.9,15.061a10.569,10.569,0,0,0,7.1,11.51l8.939-23.387c-.122-.49-30.245-12-42.244-20.081C255.2,201.541,248.1,214.4,248.1,214.4Z" transform="translate(-185.262 -114.113)"/><path d="M264.762,235.072c2.816-5.755,7.837-14.694,10.775-20.326-27.673-15.183-42.734-46.163-47.387-77.264a265.8,265.8,0,0,1-25.959-8.082,9.176,9.176,0,0,0-.612,1.959,241.441,241.441,0,0,0,5.51,117.795c6.245-1.224,17.51-4.286,23.632-5.755-7.592-24.734-16.041-48.979-14.816-74.815C224.355,196.011,240.15,221.848,264.762,235.072Z" transform="translate(-196.782 -129.4)"/><g transform="translate(45.083 50.204)"><path class="e" d="M256.141,224.585A83.745,83.745,0,0,1,234.1,206.83V172.3c8.326,14.571,19.224,25.714,32.326,33.061-1.224,2.327-2.694,5.143-4.286,8.082C259.936,217.361,257.732,221.4,256.141,224.585Z" transform="translate(-233.488 -169.973)"/><path d="M234.824,174.931c8.082,13.592,18.49,24,30.857,31.1-1.1,2.2-2.571,4.775-4.041,7.592-1.959,3.673-4.041,7.469-5.633,10.653a84.682,84.682,0,0,1-21.183-17.143v-32.2M233.6,170.4v37.1a83.716,83.716,0,0,0,23.02,18.367c2.816-5.755,7.837-14.694,10.775-20.326-14.816-8.082-25.959-20.571-33.8-35.142Z" transform="translate(-233.6 -170.4)"/></g><line class="d" x2="18" transform="translate(21.818 139.468)"/><line class="b" x1="5.143" y2="15.918" transform="translate(93.694 97.223)"/><line class="d" x2="4.041" transform="translate(23.165 145.468)"/><line class="b" y1="2.571" x2="1.469" transform="translate(97.735 112.774)"/><path class="b" d="M209.6,147.8c.367,4.775,2.939,14.326,2.939,14.326" transform="translate(-193.905 -125.27)"/></g><g transform="translate(0)"><path class="d" d="M177.863,75.314c-10.286-1.837-13.959.735-17.388,3.306-1.714,1.347-4.531,5.633-4.775,8.694" transform="translate(-155.7 -74.692)"/><path class="d" d="M156,85.031c2.816-2.816,4.9-4.531,4.9-4.531" transform="translate(-155.633 -73.388)"/><path class="e" d="M162.7,85.21l5.51-5.51,7.224,1.959L173.475,89.5l-10.163-1.837Z" transform="translate(-154.129 -73.568)"/><path class="d" d="M162.647,83c-1.1,4.286-4.408,4.531-3.306,7.224,1.1,2.816,6.367-4.163,11.143-2.939" transform="translate(-154.933 -72.827)"/><path class="d" d="M249.1,158.345c4.286,3.306,4.163,6.735,6.122,8.694s2.2-2.082,2.2-4.041,4.163,5.265,6,4.163-2.2-6-2.2-6,3.673,5.388,5.265,3.8-3.061-6.735-3.061-6.735,3.429,5.02,4.9,3.918-3.306-8.571-12-16.041" transform="translate(-134.734 -58.663)"/><path class="d" d="M267.462,174.238c-8.082-5.02-23.51-17.51-31.1-25.224-.122,1.347-.612,4.041-.98,6.612-2.571-1.1-30.245-11.755-30.245-11.755l4.653-11.633c-.49-2.571.735-5.877,3.918-9.8-10.286-14.081-28.9-28.9-46.408-33.428L175.382,75.3c20.449,5.265,37.591,22.9,49.591,39.306l1.1,1.469c2.327,3.061,5.143,6.245,8.082,9.428,12.979,13.959,30.489,28.285,40.53,36.734Z" transform="translate(-153.096 -74.556)"/><path d="M259.7,150.151l-7.224,12A187.751,187.751,0,0,1,233.5,147.824V128.6h1.224C244.031,137.171,253.337,144.763,259.7,150.151Z" transform="translate(-138.236 -62.591)"/></g><g transform="translate(69.795 23.624)"><path class="d" d="M227.516,94h0a13.893,13.893,0,0,0-6.49,1.714l.367,1.592s-2.939,3.061-.367,6.122l-3.061,11.143c-.49-.612-1.1-1.347-1.592-2.082L212.7,122.532l10.653-1.347.49-.122c-.122-.122,3.673-14.449,3.673-14.449.122,0,.49,0,.49-.122a5.3,5.3,0,0,1,.612-.122h.122c.122,0,.245-.122.49-.122.245-.122.612-.245.857-.367.122-.122.367-.245.49-.367a10.568,10.568,0,0,0,2.2-1.959C236.455,99.267,231.679,93.757,227.516,94Z" transform="translate(-212.7 -93.984)"/><path d="M224.839,102.819c-.98-.49-.857,2.694-.49,3.184.122.245,1.1,6.245,2.2,9.061a27.981,27.981,0,0,0,6.857,9.551c3.673,3.551,10.9,5.51,15.551,2.816a8.1,8.1,0,0,0,2.816-11.265c-1.592-2.694-4.653-4.163-7.469-5.388-1.714-.735-3.551-1.1-5.265-1.837-5.143-2.082-5.878-4.286-6.857-9.184a1.21,1.21,0,0,0-.857-.857c-.735-2.816-3.673-5.143-6.367-4.9a12.055,12.055,0,0,0,1.714,6.98C227.533,102.207,225.941,103.432,224.839,102.819Z" transform="translate(-210.146 -93.986)"/></g></g><g transform="translate(61.211 165.435)"><rect class="f" width="75.673" height="142.407"/><path class="g" d="M87.743,248.275l-.98-22.775-22.53,1.469,7.347,6.735L58.6,248.03l8.816,7.959L80.4,241.663Z" transform="translate(-54.437 -124.603)"/><path class="d" d="M83.692,204.581l29.755,1.469.857-29.51-9.551,8.694L87.488,166.5,76.1,177.03l17.143,18.734Z" transform="translate(-50.508 -137.847)"/><path class="f" d="M68.4,208.837,94.481,207l1.1,36h14.449l8.082,19.959" transform="translate(-52.237 -128.756)"/><path class="f" d="M59.4,233.65l.367-42.244,12.979.735,10.408-32.326L97.6,162.753l6.98-16.653" transform="translate(-54.257 -142.427)"/><circle cx="5.51" cy="5.51" r="5.51" transform="translate(51.918 19.347)"/><circle class="h" cx="3.673" cy="3.673" r="3.673" transform="translate(12.49 86.448)"/><rect class="d" width="5.877" height="5.877" transform="matrix(0.866, -0.5, 0.5, 0.866, 48.528, 102.407)"/><line class="d" x2="10.53" transform="translate(52.04 79.713)"/><line class="d" x2="10.53" transform="translate(52.04 84.979)"/></g><g transform="translate(28.424 118.092)"><rect class="d" width="51.795" height="61.224" transform="translate(0 21.148) rotate(-24.097)"/><line class="d" y1="12.612" x2="28.408" transform="translate(18.215 20.528)"/><path class="d" d="M66.8,132.382c1.592-.735,3.061-1.347,4.653-2.082" transform="translate(-19.809 -98.63)"/><path class="d" d="M47.3,142c5.265-2.326,10.53-4.653,15.8-7.1" transform="translate(-24.187 -97.597)"/></g><g transform="translate(52.027 314.087)"><line class="d" x2="202.038"/><line class="d" x2="102.366" transform="translate(217.589)"/><line class="d" y2="6.367" transform="translate(10.53 0.367)"/><line class="d" y2="6.367" transform="translate(44.326 0.367)"/><line class="d" y2="6.367" transform="translate(78.122 0.367)"/><line class="d" y2="6.367" transform="translate(111.917 0.367)"/><line class="d" y2="6.367" transform="translate(145.713 0.367)"/><line class="d" y2="6.367" transform="translate(179.508 0.367)"/><line class="d" y2="6.367" transform="translate(263.14 0.367)"/><line class="d" y2="6.367" transform="translate(296.813 0.367)"/></g><g transform="translate(44.19 68.212)"><line class="f" x2="1.102" y2="3.306" transform="translate(247.099 200.324)"/><line class="f" x2="2.816" y2="2.204" transform="translate(227.63 180.243)"/><line class="f" x1="3.918" y2="7.714" transform="translate(175.345 215.385)"/><line class="f" x1="4.408" y1="5.02" transform="translate(135.305 2.204)"/><line class="f" y1="6.122" x2="0.49" transform="translate(149.753)"/><line class="f" x1="3.918" y2="1.102" transform="translate(0 204.243)"/></g></g></g></svg>